<svg xmlns="http://www.w3.org/2000/svg" width="256" height="256" viewBox="0 0 100 100"><rect width="100" height="100" rx="20" fill="#8880ea"></rect><path d="M71.20 35.10L71.20 35.10Q71.20 39.50 69 42.95Q66.80 46.40 62 48.40L62 48.40Q67.80 50.30 70.65 54.20Q73.50 58.10 73.50 63.30L73.50 63.30Q73.50 72.70 66.75 77.15Q60 81.60 47.40 81.60L47.40 81.60Q43.50 81.60 39.15 81.20Q34.80 80.80 31.10 79.70L31.10 79.70Q26.50 78.40 26.50 74.40L26.50 74.40L26.50 24.40Q26.50 22.70 27.45 21.75Q28.40 20.80 30.10 20.30L30.10 20.30Q33.50 19.20 37.65 18.80Q41.80 18.40 46.60 18.40L46.60 18.40Q58.30 18.40 64.75 22.50Q71.20 26.60 71.20 35.10ZM62.60 63.00L62.60 63.00Q62.60 58.40 59.20 55.75Q55.80 53.10 49.40 53.10L49.40 53.10L37 53.10L37 72.10Q39.10 72.60 42 72.85Q44.90 73.10 47.80 73.10L47.80 73.10Q54.90 73.10 58.75 70.65Q62.60 68.20 62.60 63.00ZM37 27.60L37 45.00L48.90 45.00Q54.60 45.00 57.50 42.50Q60.40 40.00 60.40 35.70L60.40 35.70Q60.40 26.90 46.60 26.90L46.60 26.90Q43.70 26.90 41.30 27.10Q38.90 27.30 37 27.60L37 27.60Z" fill="#fff"></path></svg>