<?xml version="1.0" standalone="no"?>
<!DOCTYPE svg PUBLIC "-//W3C//DTD SVG 20010904//EN"
 "http://www.w3.org/TR/2001/REC-SVG-20010904/DTD/svg10.dtd">
<svg version="1.0" xmlns="http://www.w3.org/2000/svg"
 width="1408.000000pt" height="736.000000pt" viewBox="0 0 1408.000000 736.000000"
 preserveAspectRatio="xMidYMid meet">

<g transform="translate(0.000000,736.000000) scale(0.100000,-0.100000)"
fill="#000000" stroke="none">
<path d="M5472 5558 c-8 -8 -12 -63 -12 -181 l0 -169 -27 7 c-88 22 -227 46
-250 43 l-28 -3 -3 -182 -2 -182 -123 -3 -122 -3 -3 -1488 -2 -1487 27 -11
c19 -7 311 -9 910 -6 l883 3 27 -28 c76 -80 226 -139 353 -140 131 -1 267 46
356 125 l45 39 899 0 c789 -1 902 1 915 14 13 14 15 188 12 1490 -2 1298 -4
1476 -17 1484 -8 5 -66 10 -127 10 l-113 0 -2 183 -3 182 -40 3 c-22 2 -91 -8
-152 -21 l-113 -23 -2 175 -3 176 -75 3 c-88 4 -308 -13 -430 -34 -213 -36
-437 -107 -612 -194 -184 -92 -278 -158 -412 -292 l-119 -119 -66 72 c-289
317 -710 501 -1270 554 -188 18 -283 19 -299 3z m211 -58 c156 -11 354 -41
472 -71 277 -70 559 -210 735 -363 76 -67 178 -182 185 -211 3 -11 4 -636 3
-1388 l-3 -1368 -55 47 c-30 26 -109 83 -175 127 -325 216 -724 346 -1167 379
l-158 12 0 1416 c0 779 3 1420 7 1423 8 8 -9 9 156 -3z m3009 -367 c2 -208 2
-849 0 -1425 l-3 -1048 -48 0 c-173 0 -536 -65 -745 -134 -241 -79 -541 -243
-701 -383 l-50 -43 -3 1376 -2 1377 27 36 c81 107 240 247 368 323 273 162
630 267 980 287 72 5 140 9 152 9 l22 2 3 -377z m-3347 37 c44 -11 88 -23 98
-26 16 -5 17 -74 17 -1263 0 -995 3 -1261 13 -1268 6 -6 61 -13 120 -17 485
-30 873 -150 1224 -379 51 -34 91 -62 89 -65 -2 -2 -62 15 -133 38 -220 72
-390 101 -715 120 -128 8 -222 8 -335 0 -158 -11 -481 -48 -495 -56 -5 -3 -8
636 -8 1419 0 783 -3 1445 -6 1471 -7 46 -6 46 22 46 16 0 65 -9 109 -20z
m3665 -1450 c0 -1169 -3 -1470 -12 -1470 -7 0 -31 5 -53 10 -155 35 -638 64
-827 49 -262 -19 -493 -63 -709 -133 -57 -19 -105 -33 -107 -31 -9 8 200 136
321 196 293 147 613 228 1007 254 58 4 111 12 118 17 9 8 12 275 12 1274 l0
1263 38 7 c20 3 64 12 97 19 33 7 72 13 88 14 l27 1 0 -1470z m-3860 -207 c0
-732 4 -1314 9 -1322 7 -11 20 -12 72 -2 310 54 695 75 954 51 317 -29 657
-115 854 -215 65 -32 89 -32 160 5 94 47 345 127 486 154 302 59 315 60 610
60 284 0 411 -9 633 -44 68 -11 128 -18 133 -15 5 4 9 531 9 1321 l0 1314 95
0 95 0 0 -1430 0 -1430 -890 0 -891 0 -47 -45 c-79 -77 -208 -125 -332 -125
-113 0 -272 69 -344 149 -19 21 -20 21 -901 21 l-882 0 -7 506 c-3 278 -3 921
0 1430 l7 924 89 0 88 0 0 -1307z"/>
<path d="M5687 5104 c-4 -4 -7 -15 -7 -25 0 -19 -4 -18 190 -39 292 -31 598
-125 890 -272 74 -37 140 -68 147 -68 7 0 13 9 13 19 0 15 -24 33 -87 68 -196
106 -465 207 -683 256 -177 39 -448 75 -463 61z"/>
<path d="M5682 4829 c3 -22 9 -25 73 -31 380 -39 702 -132 1014 -290 94 -47
138 -65 145 -58 21 21 -12 46 -164 122 -153 76 -390 163 -566 207 -101 26
-302 58 -417 67 l-89 7 4 -24z"/>
<path d="M5680 4573 c0 -25 18 -33 78 -33 68 0 235 -26 370 -56 220 -49 406
-116 630 -226 103 -51 146 -68 154 -60 22 22 -4 41 -154 115 -317 156 -669
255 -975 274 -99 6 -103 5 -103 -14z"/>
<path d="M5682 4318 c3 -22 10 -24 128 -35 327 -32 648 -128 959 -286 129 -65
163 -73 148 -34 -14 37 -306 173 -527 247 -203 68 -526 130 -675 130 -32 0
-36 -3 -33 -22z"/>
<path d="M5686 4083 c-3 -3 -6 -14 -6 -24 0 -19 18 -23 145 -34 287 -26 642
-132 943 -282 95 -47 136 -63 144 -55 22 22 -4 41 -144 110 -296 145 -597 236
-898 271 -169 20 -177 20 -184 14z"/>
<path d="M5684 3815 c-10 -25 4 -32 78 -39 364 -34 765 -154 1066 -319 56 -30
76 -37 85 -28 21 21 -7 45 -124 104 -293 147 -595 239 -932 282 -146 19 -166
19 -173 0z"/>
<path d="M5682 3549 c3 -23 8 -24 123 -36 336 -35 691 -141 984 -294 81 -42
117 -57 125 -49 21 21 -11 45 -150 115 -309 154 -673 257 -993 281 l-93 7 4
-24z"/>
<path d="M5692 3312 c-18 -6 -14 -39 4 -46 9 -3 34 -6 56 -6 22 0 88 -7 147
-16 291 -42 584 -133 838 -259 92 -46 171 -81 175 -79 5 3 8 14 8 24 0 14 -33
35 -130 84 -293 150 -628 252 -935 286 -150 16 -151 16 -163 12z"/>
<path d="M5684 3045 c-11 -27 8 -35 107 -46 347 -35 670 -131 979 -290 91 -47
137 -66 144 -59 20 20 -10 45 -130 107 -279 146 -664 262 -949 288 -38 3 -87
8 -107 11 -29 5 -39 2 -44 -11z"/>
<path d="M8315 5099 c-288 -37 -588 -129 -865 -265 -145 -71 -175 -93 -152
-116 7 -7 43 6 119 45 314 160 684 270 988 292 112 9 125 12 125 35 0 18 -6
20 -72 19 -40 -1 -104 -6 -143 -10z"/>
<path d="M8395 4849 c-332 -34 -660 -131 -968 -286 -124 -62 -151 -83 -129
-105 7 -7 54 12 154 61 305 151 593 237 924 276 71 8 135 15 142 15 8 0 12 9
10 23 -4 26 -19 28 -133 16z"/>
<path d="M8425 4593 c-392 -45 -695 -132 -1003 -287 -115 -58 -141 -79 -123
-99 11 -14 22 -11 94 28 283 152 679 272 1007 305 120 12 137 18 127 44 -6 16
-30 18 -102 9z"/>
<path d="M8305 4324 c-271 -36 -577 -130 -837 -256 -92 -44 -170 -88 -173 -96
-16 -42 19 -33 172 40 345 166 674 256 1023 281 28 1 36 7 38 25 3 21 0 22
-60 21 -35 -1 -108 -7 -163 -15z"/>
<path d="M8370 4074 c-337 -41 -669 -141 -963 -291 -107 -55 -130 -74 -109
-95 8 -8 50 9 144 55 313 154 665 258 948 282 132 11 142 13 138 38 -4 28 -15
29 -158 11z"/>
<path d="M8450 3824 c-239 -25 -440 -68 -660 -140 -177 -59 -486 -201 -496
-229 -17 -43 17 -35 167 38 291 142 586 231 889 267 52 6 114 13 138 16 37 5
43 8 40 27 -3 23 -17 27 -78 21z"/>
</g>
</svg>
